<svg width="400" height="400" viewBox="0 0 400 400" fill="none" xmlns="http://www.w3.org/2000/svg">
<rect width="400" height="400" fill="#0F172A"/>
<path d="M280.273 152.409C280.273 140.987 271.013 131.727 259.591 131.727H141.409C129.987 131.727 120.727 140.987 120.727 152.409V246.955C120.727 258.377 129.987 267.636 141.409 267.636H259.591C271.013 267.636 280.273 258.377 280.273 246.955V152.409ZM298 246.955C298 268.167 280.804 285.364 259.591 285.364H141.409C120.196 285.364 103 268.167 103 246.955V152.409C103 131.196 120.196 114 141.409 114H259.591C280.804 114 298 131.196 298 152.409V246.955Z" fill="white"/>
<path d="M230.045 199.683C230.045 183.365 216.817 170.137 200.5 170.137C184.182 170.137 170.954 183.365 170.954 199.683C170.954 216 184.182 229.228 200.5 229.228C216.817 229.228 230.045 216 230.045 199.683ZM247.773 199.683C247.773 225.791 226.608 246.955 200.5 246.955C174.392 246.955 153.227 225.791 153.227 199.683C153.227 173.575 174.392 152.41 200.5 152.41C226.608 152.41 247.773 173.575 247.773 199.683Z" fill="white"/>
<path d="M200.5 211.5C207.027 211.5 212.318 206.209 212.318 199.682C212.318 193.155 207.027 187.864 200.5 187.864C193.973 187.864 188.682 193.155 188.682 199.682C188.682 206.209 193.973 211.5 200.5 211.5Z" fill="white"/>
<path d="M191.636 238.092V226.274C191.636 221.378 195.605 217.41 200.5 217.41C205.395 217.41 209.363 221.378 209.363 226.274V238.092C209.363 242.987 205.395 246.955 200.5 246.955C195.605 246.955 191.636 242.987 191.636 238.092ZM173.909 190.819C178.804 190.819 182.773 194.787 182.773 199.683C182.773 204.578 178.804 208.546 173.909 208.546H162.091C157.195 208.546 153.227 204.578 153.227 199.683C153.227 194.787 157.195 190.819 162.091 190.819H173.909ZM238.909 190.819C243.804 190.819 247.773 194.787 247.773 199.683C247.773 204.578 243.804 208.546 238.909 208.546H227.091C222.195 208.546 218.227 204.578 218.227 199.683C218.227 194.787 222.195 190.819 227.091 190.819H238.909ZM191.636 173.092V161.274C191.636 156.378 195.605 152.41 200.5 152.41C205.395 152.41 209.363 156.378 209.363 161.274V173.092C209.363 177.987 205.395 181.955 200.5 181.955C195.605 181.955 191.636 177.987 191.636 173.092Z" fill="white"/>
</svg>
